<svg width="1126" height="322" viewBox="179.8 60.7 1126.0 321.7" fill="none" xmlns="http://www.w3.org/2000/svg">
<path d="M942.416 210.087C964.45 210.087 980.735 218.45 989.836 234.459C992.151 238.441 993.349 242.662 993.349 246.724C993.349 255.326 987.521 260.902 978.66 260.902C971.315 260.902 966.845 258.034 963.172 250.946C958.063 241.149 951.677 236.609 942.815 236.609C928.925 236.609 920.143 248.875 920.143 269.424C920.143 290.212 928.845 302.478 942.895 302.478C952.156 302.478 958.622 297.778 963.492 287.583C966.925 280.336 970.996 277.548 978.101 277.548C987.761 277.548 994.067 283.442 994.067 292.442C994.067 295.309 993.429 298.336 992.231 301.283C985.525 317.929 966.126 329 943.694 329C907.131 329 885.656 307.416 885.656 269.503C885.656 231.591 907.61 210.087 942.416 210.087Z" fill="#121729"/>
<path d="M1026.12 210.087C1058.64 210.087 1042.49 292.969 1042.49 312.115C1042.49 323.664 1035.7 329 1026.12 329C997.023 329 997.023 210.087 1026.12 210.087Z" fill="#121729"/>
<path fill-rule="evenodd" clip-rule="evenodd" d="M1102.99 236.848C1127.42 236.848 1143.78 249.034 1143.78 266.875V312.593C1143.78 323.903 1137 329 1127.58 329C1118.96 329 1112.89 324.779 1111.85 315.221H1111.21C1106.58 323.823 1095.89 328.283 1085.67 328.283C1069.62 328.283 1055.97 317.292 1055.97 301.442C1055.97 284.557 1068.98 275.398 1092.53 273.964L1111.85 272.769V268.468C1111.85 262.574 1107.38 259.388 1101.23 259.388C1096.13 259.388 1093.57 260.742 1087.9 265.92C1084.07 269.424 1079.92 271.176 1075.05 271.176C1067.31 271.176 1061.8 266.397 1061.8 259.627C1061.8 257.636 1061.96 256.362 1062.44 254.769C1065.79 243.539 1081.04 236.848 1102.99 236.848ZM1097.96 291.168C1091.73 291.646 1088.22 294.592 1088.22 298.893C1088.22 303.672 1092.13 306.46 1097.88 306.46C1105.15 306.46 1111.85 302.398 1111.85 295.946V290.212L1097.96 291.168Z" fill="#121729"/>
<path d="M1272.55 237.087C1281.41 237.087 1287.8 242.901 1287.8 250.786C1287.8 254.052 1287.16 256.76 1285.88 261.38L1271.67 311.159C1268.16 323.504 1262.09 329 1250.2 329C1237.75 329 1231.36 323.584 1228.65 311L1219.86 270.38H1219.23L1210.52 311.318C1207.89 323.743 1201.58 329 1189.37 329C1177.71 329 1171.81 323.504 1168.29 311.318L1154.08 261.778C1152.73 257.079 1152.09 254.371 1152.09 251.025C1152.09 242.981 1158.79 237.087 1167.81 237.087C1190.23 237.087 1189.55 283.497 1192.4 298.415H1193.04L1202.06 252.22C1203.98 242.424 1210.36 237.087 1220.26 237.087C1230.08 237.087 1236.55 242.424 1238.46 252.3L1247.57 298.415H1248.2L1257.3 250.866C1258.9 242.423 1264.49 237.087 1272.55 237.087Z" fill="#121729"/>
<path d="M613.251 325.86C597.209 325.86 583.562 314.871 583.562 299.025C583.562 282.143 596.571 272.986 620.115 271.552L639.428 270.358V266.058C639.428 260.165 634.959 256.98 628.814 256.98C623.706 256.98 621.152 258.333 615.486 263.509C611.655 267.013 607.505 268.765 602.636 268.765C594.895 268.765 589.388 263.987 589.388 257.219C589.388 255.228 589.548 253.954 590.026 252.361C593.378 241.133 608.622 234.444 630.57 234.444C654.991 234.444 671.352 246.628 671.352 264.465V310.173C671.352 321.481 664.568 326.577 655.151 326.577C646.531 326.577 640.466 322.357 639.428 312.801H638.79C634.161 321.401 623.467 325.86 613.251 325.86ZM625.462 304.042C632.724 304.042 639.428 299.98 639.428 293.53V287.797L625.542 288.752C619.316 289.23 615.805 292.177 615.805 296.477C615.805 301.255 619.716 304.042 625.462 304.042ZM700.083 326.577C690.506 326.577 683.723 321.242 683.723 309.695V251.087C683.723 240.655 689.389 234.683 699.605 234.683C709.82 234.683 716.444 240.655 716.444 251.167V253.157H717.083C721.552 240.815 729.932 234.922 743.34 234.922C763.133 234.922 773.987 247.185 773.987 268.287V309.695C773.987 321.242 767.203 326.577 757.626 326.577C748.049 326.577 741.265 321.242 741.265 309.695V275.534C741.265 266.695 737.115 261.28 728.895 261.28C721.153 261.28 716.444 267.252 716.444 275.454V309.695C716.444 321.242 709.661 326.577 700.083 326.577ZM829.933 326.816C801.202 326.816 783.644 310.253 783.644 280.55C783.644 251.644 801.681 234.444 829.933 234.444C858.345 234.444 876.302 251.485 876.302 280.55C876.302 310.332 858.744 326.816 829.933 326.816ZM829.933 303.484C838.074 303.484 843.102 295.362 843.102 280.63C843.102 266.297 837.994 257.776 829.933 257.776C821.952 257.776 816.844 266.297 816.844 280.63C816.844 295.362 821.713 303.484 829.933 303.484Z" fill="#121729"/>
<path d="M499.585 217.237C494.716 210.787 490.008 208 483.862 208C454.896 208 455.468 326.889 483.862 326.889C493.918 326.889 499.824 320.996 499.824 310.167V264.379L539.809 317.652C544.597 324.182 549.146 326.889 555.611 326.889C583.796 326.889 583.725 208 555.212 208C545.156 208 539.25 213.893 539.25 224.723V269.555L499.585 217.237Z" fill="#121729"/>
<path d="M359.885 72.4281C360.228 72.2103 360.635 72.1328 361.024 72.2148C361.413 72.2969 361.755 72.5324 361.983 72.8709C362.212 73.2093 362.308 73.6232 362.242 74.0197C362.051 75.1607 361.841 76.2953 361.613 77.4298C357.517 96.7765 349.456 115.022 337.737 131.398C342.252 134.789 346.109 138.65 349.535 142.953C360.989 126.742 369.342 106.919 373.89 86.8456C374.133 85.7148 374.363 84.5744 374.574 83.4379C374.648 83.0422 374.879 82.6869 375.209 82.449C375.54 82.2112 375.942 82.1102 376.336 82.1695C376.729 82.2288 377.084 82.4442 377.332 82.7692C377.579 83.094 377.698 83.5021 377.654 83.9022C377.524 85.0828 377.375 86.2687 377.211 87.446C373.942 108.681 367.253 129.097 355.79 148.093C355.376 148.709 354.961 149.31 354.499 149.923C356.782 153.487 358.888 157.29 360.91 161.323C366.931 173.322 370.048 186.516 371.044 199.872C371.131 200.995 371.185 204.77 372.009 205.406C374.105 205.59 382.382 194.599 383.713 192.613C384.814 190.971 387.659 186.602 388.159 184.753C389.948 178.124 390.726 171.13 391.237 164.28C392.441 150.403 399.76 137.011 410.82 128.707C415.284 125.353 424.227 120.027 429.393 125.434C433.936 130.191 424.914 135.157 423.237 138.693C422.148 140.991 423.502 143.639 423.902 145.925C424.555 149.662 423.822 152.297 422.336 155.663C422.037 156.34 421.628 157.116 422.01 157.838C424.047 159.358 426.353 154.198 427.205 152.987C429.875 149.165 433.701 146.925 437.24 144.081C437.66 143.743 437.834 143.189 437.727 142.658C436.974 138.936 436.481 131.634 438.313 128.961C444.66 119.698 453.769 128.842 455.157 136.743C456.524 144.27 456.216 151.859 454.322 159.285C450.555 174.045 442.366 187.641 430.247 196.87C425.699 200.333 421.473 202.227 416.214 203.659C415.563 203.836 414.992 204.237 414.605 204.796C400.852 224.63 379.722 239.12 364.351 245.673C360.144 249.614 356.611 254.984 352.608 259.272C351.881 260.051 351.95 261.309 352.846 261.884C354.753 263.107 356.741 264.045 358.732 265.229C370.638 272.31 378.141 283.702 379.946 297.573C381.323 307.395 380.738 317.395 378.225 326.984C391.253 331.051 412.126 352.528 393.104 362.566C380.04 369.174 360.305 368.388 346.185 369.326C316.122 371.159 285.718 370.228 255.674 367.856C252.326 367.616 235.492 366.787 233.943 364.257C233.79 359.721 253.918 359.659 257.269 358.459C255.551 357.288 252.94 356.224 251.016 355.249C247.887 353.636 244.924 351.711 242.172 349.505C238.017 346.184 236.117 343.211 233.005 339.102C232.08 337.881 228.432 336.164 227.008 334.944C217.754 327.038 213.193 314.347 212.003 302.447C211.638 298.795 211.239 299.259 209.311 296.37C200.378 282.991 201.642 257.734 208.645 243.935C197.865 207.096 224.18 150.017 255.012 129.524C274.193 116.62 300.655 114.091 322.206 122.75C325.426 124.048 328.396 125.489 331.149 127.067C343.311 112.752 352.957 95.1854 358.335 76.6251C358.639 75.5462 358.925 74.4654 359.194 73.3766C359.29 72.9865 359.542 72.646 359.885 72.4281Z" fill="#121729"/>
<g filter="url(#filter0_i_37_1028)">
<path d="M297.785 283.535C297.066 283.331 296.815 282.425 297.328 281.883C328.171 249.293 368.996 268.505 370.492 300.991C372.045 370.051 283.55 356.06 277.336 354.491C279.678 352.384 286.976 350.961 289.165 344.106C289.802 342.11 291.928 340.589 293.948 341.144C303.159 343.676 320.253 346.011 321.881 335.965C323.025 328.909 313.529 326.405 308.487 321.557C306.803 319.938 307.998 317.56 310.323 317.776C317.815 318.472 327.771 323.186 331.336 315.976C338.017 302.463 312.917 287.839 297.785 283.535Z" fill="#56EDD6"/>
</g>
<path d="M272.805 130.865C286.931 124.561 304.646 125.748 318.791 130.959C320.39 131.548 322.196 132.306 323.624 133.395C324.482 134.048 324.643 135.25 324.068 136.167C321.371 140.462 316.595 142.98 314.014 147.275C312.407 149.952 314.212 152.103 316.564 153.324C322.536 155.744 327.37 146.013 330.989 141.153C331.745 140.138 333.124 139.957 334.16 140.675C345.668 148.648 353.098 163.686 357.156 176.074C363.33 194.915 367.267 220.123 358.052 238.624C353.846 247.024 349.309 253.342 337.537 255.995C325.5 258.605 310.718 253.861 298.094 268.591C295.599 271.295 293.218 275.282 290.381 277.224C285.918 280.279 281.57 274.184 278.978 269.437C275.102 262.339 270.162 254.266 264.712 252.644C257.131 249.38 251.04 254.42 251.732 263.517C252.424 272.615 246.476 267.754 238.465 263.117C230.453 258.481 219.81 248.965 216.822 237.514C208.27 204.512 239.003 141.968 272.805 130.865Z" fill="#56EDD6"/>
<path d="M272.805 130.865C280.512 127.426 289.286 126.216 297.966 126.673C291.617 127.018 285.383 128.34 279.725 130.865C245.923 141.968 215.19 204.512 223.741 237.513C226.729 248.965 237.373 258.481 245.384 263.117C247.654 264.431 249.758 265.762 251.593 266.789C250.534 271.116 245.237 267.036 238.465 263.117C230.453 258.481 219.81 248.965 216.822 237.513C208.27 204.512 239.003 141.968 272.805 130.865Z" fill="white" fill-opacity="0.71"/>
<path d="M263.263 171.056C271.523 170.385 278.762 176.603 279.442 184.955C280.123 193.308 273.989 200.64 265.731 201.346C257.449 202.054 250.172 195.829 249.489 187.452C248.806 179.075 254.978 171.729 263.263 171.056Z" fill="#121729"/>
<path d="M268.236 175.868C269.414 175.886 270.459 176.05 271.519 176.602C272.929 177.331 273.98 178.612 274.426 180.146C274.811 181.492 274.62 182.94 273.9 184.138C272.917 185.798 271.467 186.458 269.724 186.945C268.428 187.177 267.229 187.094 266.029 186.499C264.76 185.884 263.813 184.752 263.426 183.387C262.999 181.89 263.19 180.281 263.958 178.928C264.881 177.332 266.483 176.297 268.236 175.868Z" fill="#FEFEFE"/>
<path d="M343.174 169.612C351.827 168.909 359.409 175.423 360.122 184.173C360.835 192.922 354.41 200.604 345.759 201.343C337.084 202.085 329.461 195.563 328.745 186.788C328.03 178.013 334.495 170.317 343.174 169.612Z" fill="#121729"/>
<path d="M347.577 173.769C348.862 173.788 350.002 173.961 351.157 174.548C352.695 175.323 353.842 176.684 354.329 178.313C354.749 179.744 354.541 181.282 353.755 182.556C352.683 184.319 351.101 185.02 349.199 185.538C347.786 185.784 346.478 185.696 345.168 185.064C343.785 184.411 342.752 183.208 342.33 181.758C341.863 180.166 342.072 178.457 342.91 177.02C343.916 175.324 345.664 174.224 347.577 173.769Z" fill="#FEFEFE"/>
<g filter="url(#filter1_i_37_1028)">
<path d="M250.158 301.85C212.588 308.377 208.412 280.81 211.583 262.527C211.822 261.152 213.782 260.887 214.628 261.998C220.825 270.138 234.058 276.727 243.315 279.913C247.732 281.432 252.21 286.331 253.332 290.865C253.738 292.504 254.164 294.184 254.502 295.787C255.119 298.704 253.095 301.34 250.158 301.85Z" fill="#56EDD6"/>
<path d="M261.374 322.145C233.082 342.109 223.505 323.756 221.95 310.06C221.832 309.019 222.849 308.248 223.851 308.558C238.088 312.955 250.83 312.89 257.097 312.111C258.286 311.963 259.471 312.465 260.064 313.507C260.652 314.539 261.446 315.991 262.416 317.879C263.178 319.358 262.733 321.185 261.374 322.145Z" fill="#56EDD6"/>
<path d="M246.251 338.818C252.578 337.247 257.044 335.215 260.066 333.288C263.41 331.156 268.299 329.656 271.91 331.296C273.955 332.224 276.113 333.292 278.385 334.719C280.266 335.9 280.784 338.403 279.501 340.216C267.478 357.204 250.639 346.826 245.471 340.886C244.816 340.134 245.283 339.058 246.251 338.818Z" fill="#56EDD6"/>
</g>
<path d="M285.648 198.013C286.899 197.539 288.296 197.58 289.561 198.114C290.828 198.648 291.844 199.637 292.51 200.819C292.761 201.179 293.045 201.547 293.357 201.91C297.26 206.56 304.563 209.188 308.129 207.825C309.849 207.321 311.865 206.501 314.443 204.538C314.894 204.194 315.344 203.844 315.823 203.432C316.764 202.538 317.906 201.815 319.184 201.527C320.461 201.238 321.755 201.4 322.841 202.011C323.927 202.621 324.742 203.646 325.166 204.891C325.591 206.136 325.576 207.493 325.311 208.767C325.076 209.638 324.818 210.453 324.481 211.295C322.694 215.964 318.397 220.8 312.397 222.514C298.789 225.93 287.851 217.738 283.257 207.438C282.892 206.552 282.579 205.628 282.338 204.677C282.062 203.347 282.175 201.929 282.776 200.687C283.375 199.445 284.398 198.487 285.648 198.013Z" fill="#121729"/>
<g filter="url(#filter2_i_37_1028)">
<path d="M372.706 339.583C373.939 337.566 376.059 336.117 378.24 337.027C384.818 339.773 393.651 348.165 388.175 353.928C383.549 358.799 361.832 359.105 352.432 358.307C351.507 358.229 351.289 357.081 352.096 356.624C358.693 352.887 367.732 347.717 372.706 339.583Z" fill="#56EDD6"/>
</g>
<path d="M270.858 289.254C278.134 286.498 285.165 287.941 292.447 289.119C311.858 292.26 327.389 307.965 325.06 312.677C288.521 303.7 296.297 324.039 311.161 332.764C312.064 333.294 311.754 334.81 310.708 334.816C286.957 334.971 272.655 323.083 266.608 309.529C260.207 295.183 264.934 291.499 270.858 289.254Z" fill="#56EDD6"/>
<path d="M260.386 260.018C266.405 258.152 269.931 274.899 275.591 279.956C275.947 280.275 275.791 280.983 275.32 281.063C270.943 281.804 265.901 283.38 262.452 286.315C261.724 286.935 260.203 286.464 260.05 285.521C258.814 277.88 254.862 261.731 260.386 260.018Z" fill="#56EDD6"/>
<g filter="url(#filter3_i_37_1028)">
<path d="M392.112 193.176C392.641 192.207 394.01 192.09 394.719 192.938C397.972 196.827 401.054 198.885 405.232 201.305C405.932 201.71 406.193 202.584 405.741 203.255C399.338 212.749 372.27 237.239 369.684 232.722C370.712 229.161 371.911 224.596 372.278 219.06C372.419 216.94 373.458 214.971 375.132 213.663C383.225 207.342 388.778 199.284 392.112 193.176ZM444.795 132.665C457.424 151.375 441.814 176.303 427.694 188.763C410.107 204.282 385.286 183.716 403.538 168.593C410.82 162.454 418.238 165.901 426.27 163.699C430.732 162.221 432.119 156.617 435.425 153.471C437.807 151.203 443.781 149.481 444.571 146.267C445.446 142.705 440.99 134.405 444.795 132.665ZM422.135 129.856C418.675 134.055 416.077 140.528 417.809 147.876C416.941 164.496 404.268 156.099 397.222 167.296C394.8 171.143 397.569 152.075 405.18 142.978C412.791 133.881 418.156 129.857 422.135 129.856Z" fill="#56EDD6"/>
</g>
<defs>
<filter id="filter0_i_37_1028" x="277.336" y="265.027" width="93.1758" height="91.6604" filterUnits="userSpaceOnUse" color-interpolation-filters="sRGB">
<feFlood flood-opacity="0" result="BackgroundImageFix"/>
<feBlend mode="normal" in="SourceGraphic" in2="BackgroundImageFix" result="shape"/>
<feColorMatrix in="SourceAlpha" type="matrix" values="0 0 0 0 0 0 0 0 0 0 0 0 0 0 0 0 0 0 127 0" result="hardAlpha"/>
<feOffset dx="-9.38867" dy="-2.4707"/>
<feComposite in2="hardAlpha" operator="arithmetic" k2="-1" k3="1"/>
<feColorMatrix type="matrix" values="0 0 0 0 0 0 0 0 0 0 0 0 0 0 0 0 0 0 0.15 0"/>
<feBlend mode="normal" in2="shape" result="effect1_innerShadow_37_1028"/>
</filter>
<filter id="filter1_i_37_1028" x="210.73" y="261.307" width="69.4766" height="88.1968" filterUnits="userSpaceOnUse" color-interpolation-filters="sRGB">
<feFlood flood-opacity="0" result="BackgroundImageFix"/>
<feBlend mode="normal" in="SourceGraphic" in2="BackgroundImageFix" result="shape"/>
<feColorMatrix in="SourceAlpha" type="matrix" values="0 0 0 0 0 0 0 0 0 0 0 0 0 0 0 0 0 0 127 0" result="hardAlpha"/>
<feOffset dx="6.42383" dy="-6.42383"/>
<feComposite in2="hardAlpha" operator="arithmetic" k2="-1" k3="1"/>
<feColorMatrix type="matrix" values="0 0 0 0 1 0 0 0 0 1 0 0 0 0 1 0 0 0 0.77 0"/>
<feBlend mode="normal" in2="shape" result="effect1_innerShadow_37_1028"/>
</filter>
<filter id="filter2_i_37_1028" x="351.598" y="336.749" width="38.2891" height="21.8958" filterUnits="userSpaceOnUse" color-interpolation-filters="sRGB">
<feFlood flood-opacity="0" result="BackgroundImageFix"/>
<feBlend mode="normal" in="SourceGraphic" in2="BackgroundImageFix" result="shape"/>
<feColorMatrix in="SourceAlpha" type="matrix" values="0 0 0 0 0 0 0 0 0 0 0 0 0 0 0 0 0 0 127 0" result="hardAlpha"/>
<feOffset dy="6.42383"/>
<feComposite in2="hardAlpha" operator="arithmetic" k2="-1" k3="1"/>
<feColorMatrix type="matrix" values="0 0 0 0 0 0 0 0 0 0 0 0 0 0 0 0 0 0 0.25 0"/>
<feBlend mode="normal" in2="shape" result="effect1_innerShadow_37_1028"/>
</filter>
<filter id="filter3_i_37_1028" x="369.684" y="129.856" width="79.7578" height="103.416" filterUnits="userSpaceOnUse" color-interpolation-filters="sRGB">
<feFlood flood-opacity="0" result="BackgroundImageFix"/>
<feBlend mode="normal" in="SourceGraphic" in2="BackgroundImageFix" result="shape"/>
<feColorMatrix in="SourceAlpha" type="matrix" values="0 0 0 0 0 0 0 0 0 0 0 0 0 0 0 0 0 0 127 0" result="hardAlpha"/>
<feOffset dx="5.43554" dy="4.44726"/>
<feComposite in2="hardAlpha" operator="arithmetic" k2="-1" k3="1"/>
<feColorMatrix type="matrix" values="0 0 0 0 1 0 0 0 0 1 0 0 0 0 1 0 0 0 0.36 0"/>
<feBlend mode="normal" in2="shape" result="effect1_innerShadow_37_1028"/>
</filter>
</defs>
</svg>
